<svg xmlns="http://www.w3.org/2000/svg" width="1600" height="900" viewBox="0 0 1600 900">
  <defs>
    <linearGradient id="g" x1="0" x2="1" y1="0" y2="1">
      <stop offset="0%" stop-color="#FFD400"/>
      <stop offset="100%" stop-color="#FFC400"/>
    </linearGradient>
    <pattern id="grid" width="40" height="40" patternUnits="userSpaceOnUse">
      <rect width="40" height="40" fill="#0a0a0a"/>
      <rect x="0" y="0" width="40" height="40" fill="none" stroke="#1a1a1a" stroke-width="1"/>
    </pattern>
  </defs>
  <rect width="1600" height="900" fill="url(#grid)"/>
  <g transform="translate(100,140)">
    <rect width="1400" height="620" rx="28" fill="url(#g)"/>
    <rect x="10" y="10" width="1380" height="600" rx="24" fill="#111111"/>
    <text x="70" y="140" font-family="Arial, Helvetica, sans-serif" font-size="64" font-weight="800" fill="#FFD400">LBANK INVITE</text>
    <text x="70" y="220" font-family="Arial, Helvetica, sans-serif" font-size="42" fill="#ffffff">레퍼럴 코드</text>
    <rect x="300" y="178" width="320" height="62" rx="12" fill="#FFD400"/>
    <text x="330" y="220" font-family="Arial, Helvetica, sans-serif" font-size="40" font-weight="700" fill="#111">4XHYW</text>
    <text x="70" y="310" font-family="Arial, Helvetica, sans-serif" font-size="40" fill="#ffffff">가입 링크</text>
    <rect x="300" y="268" width="1000" height="62" rx="12" fill="#0f0f0f" stroke="#FFD400" stroke-width="3"/>
    <text x="320" y="310" font-family="Arial, Helvetica, sans-serif" font-size="34" fill="#FFD400">https://lbank.com/ref/4XHYW</text>
    <g transform="translate(70,360)">
      <rect width="560" height="140" rx="18" fill="#FFD400"/>
      <text x="45" y="93" font-family="Arial, Helvetica, sans-serif" font-size="40" font-weight="800" fill="#111">지금 가입하고 혜택 받기</text>
    </g>
    <g transform="translate(1150,180)">
      <rect width="200" height="200" rx="18" fill="#FFD400"/>
      <rect x="20" y="20" width="60" height="60" fill="#111"/>
      <rect x="120" y="20" width="40" height="40" fill="#111"/>
      <rect x="80" y="80" width="40" height="40" fill="#111"/>
      <rect x="20" y="140" width="60" height="40" fill="#111"/>
      <rect x="120" y="120" width="60" height="60" fill="#111"/>
    </g>
  </g>
</svg>